<svg xmlns="http://www.w3.org/2000/svg" width="1200" height="760" viewBox="0 0 1200 760">
<defs><linearGradient id="a" x1="0" x2="1"><stop stop-color="#ffd400"/><stop offset="1" stop-color="#ff9d00"/></linearGradient></defs>
<rect width="1200" height="760" rx="36" fill="#08090a"/>
<rect x="28" y="28" width="1144" height="704" rx="24" fill="#111315" stroke="#303337"/>
<rect x="28" y="28" width="1144" height="72" rx="24" fill="#181a1d"/>
<circle cx="72" cy="64" r="8" fill="#ff5f57"/><circle cx="100" cy="64" r="8" fill="#febc2e"/><circle cx="128" cy="64" r="8" fill="#28c840"/>
<text x="170" y="72" fill="#fff" font-family="Arial" font-size="22" font-weight="700">Authorized Security Query Helper</text>
<rect x="62" y="132" width="310" height="544" rx="18" fill="#0c0e10" stroke="#2e3135"/>
<text x="88" y="180" fill="#ffd400" font-family="Arial" font-size="16" font-weight="800">CATEGORIES</text>
<g fill="#d9dcdf" font-family="Arial" font-size="18">
<text x="90" y="230">Authentication</text><text x="90" y="275">Administration</text><text x="90" y="320">Documents</text><text x="90" y="365">Backups</text><text x="90" y="410">CMS</text><text x="90" y="455">Subdomains</text>
</g>
<rect x="405" y="132" width="733" height="74" rx="14" fill="#fff"/>
<text x="435" y="179" fill="#17191b" font-family="Arial" font-size="24">site:YOUR-AUTHORIZED-DOMAIN.example</text>
<rect x="990" y="144" width="128" height="50" rx="10" fill="url(#a)"/><text x="1023" y="177" fill="#08090a" font-family="Arial" font-size="18" font-weight="900">GENERATE</text>
<g font-family="Arial">
<rect x="405" y="232" width="733" height="112" rx="16" fill="#0b0d0f" stroke="#303337"/><text x="435" y="268" fill="#ffd400" font-size="15" font-weight="800">ADMINISTRATION</text><text x="435" y="309" fill="#fff" font-size="21">site:example.com inurl:admin</text>
<rect x="405" y="362" width="733" height="112" rx="16" fill="#0b0d0f" stroke="#303337"/><text x="435" y="398" fill="#ffd400" font-size="15" font-weight="800">DOCUMENTS</text><text x="435" y="439" fill="#fff" font-size="21">site:example.com filetype:pdf</text>
<rect x="405" y="492" width="733" height="112" rx="16" fill="#0b0d0f" stroke="#303337"/><text x="435" y="528" fill="#ffd400" font-size="15" font-weight="800">DIRECTORY LISTING</text><text x="435" y="569" fill="#fff" font-size="21">site:example.com intitle:"index of"</text>
</g>
<text x="405" y="657" fill="#8f969c" font-family="Arial" font-size="17">Generated locally • no automated search • no telemetry</text>
</svg>